<svg xmlns="http://www.w3.org/2000/svg" xmlns:xlink="http://www.w3.org/1999/xlink" xmlns:serif="http://www.serif.com/" viewBox="0 0 16 20" version="1.1" xml:space="preserve" style="" x="0px" y="0px" fill-rule="evenodd" clip-rule="evenodd" stroke-linejoin="round" stroke-miterlimit="1.41421"><path d="M6.452,3.273c0.107,0 0.194,0.087 0.194,0.194c0,0.107 -0.087,0.194 -0.194,0.194l-0.349,0l0.318,1.189l3.529,0l-0.279,-0.787c-0.001,-0.002 -0.001,-0.005 -0.002,-0.007c-0.015,-0.028 -0.024,-0.059 -0.024,-0.093c0,-0.107 0.087,-0.194 0.194,-0.194l1.067,0c0.012,0 0.025,-0.001 0.037,-0.001c0.013,0 0.025,0.001 0.038,0.001l0.021,0c0.021,0 0.042,0.004 0.061,0.01c0.317,0.057 0.559,0.34 0.559,0.68c0,0.328 -0.227,0.604 -0.529,0.673c-0.036,0.006 -0.072,-0.004 -0.099,-0.027c-0.028,-0.023 -0.044,-0.057 -0.044,-0.092c-0.005,-0.051 -0.005,-0.107 -0.005,-0.154c0,-0.056 0.038,-0.106 0.092,-0.121c0.12,-0.033 0.204,-0.147 0.204,-0.279c0,-0.157 -0.117,-0.287 -0.268,-0.302l-0.857,0l1.005,2.832c0.221,-0.061 0.454,-0.094 0.694,-0.094c1.427,0 2.585,1.158 2.585,2.584c0,1.427 -1.158,2.585 -2.585,2.585c-1.426,0 -2.584,-1.158 -2.584,-2.585c0,-1.049 0.626,-1.953 1.525,-2.358l-0.638,-1.799l-2.465,4.271c-0.035,0.059 -0.096,0.094 -0.16,0.096c-0.016,0.005 -0.033,0.007 -0.05,0.007l-1.321,0c-0.099,1.336 -1.216,2.391 -2.577,2.391c-1.427,0 -2.585,-1.159 -2.585,-2.585c0,-1.427 1.158,-2.585 2.585,-2.585c0.398,0 0.775,0.09 1.111,0.251l1.356,-2.347l-0.311,-1.16l-0.412,0c-0.107,0 -0.194,-0.087 -0.194,-0.194c0,-0.107 0.087,-0.194 0.194,-0.194l1.163,0Zm-1.985,4.224c-0.281,-0.13 -0.593,-0.202 -0.922,-0.202c-1.218,0 -2.207,0.989 -2.207,2.207c0,1.218 0.989,2.207 2.207,2.207c1.152,0 2.1,-0.886 2.198,-2.013l-2.207,0c-0.107,0 -0.193,-0.087 -0.193,-0.194c0,-0.015 0.001,-0.029 0.004,-0.042c0.004,-0.022 0.012,-0.044 0.023,-0.064l1.097,-1.899Zm6.416,-0.018c-0.753,0.351 -1.275,1.115 -1.275,2c0,1.218 0.989,2.207 2.207,2.207c1.218,0 2.207,-0.989 2.207,-2.207c0,-1.218 -0.989,-2.207 -2.207,-2.207c-0.196,0 -0.386,0.026 -0.567,0.074l0.732,2.065c0.036,0.101 -0.017,0.212 -0.118,0.248c-0.1,0.035 -0.211,-0.017 -0.247,-0.118l-0.732,-2.062Zm-6.08,0.21l-0.934,1.619l1.874,0c-0.058,-0.67 -0.417,-1.254 -0.94,-1.619Zm1.319,1.619l1.092,0l-1.06,-3.958l-1.161,2.011c0.635,0.431 1.069,1.138 1.129,1.947Zm0.403,-4.071l1.013,3.779l2.181,-3.779l-3.194,0Z"/><text x="0" y="31" fill="#000000" font-size="5px" font-weight="bold" font-family="'Helvetica Neue', Helvetica, Arial-Unicode, Arial, Sans-serif">Created by Sakchai Ruankam</text><text x="0" y="36" fill="#000000" font-size="5px" font-weight="bold" font-family="'Helvetica Neue', Helvetica, Arial-Unicode, Arial, Sans-serif">from the Noun Project</text></svg>