<svg xmlns="http://www.w3.org/2000/svg" xmlns:xlink="http://www.w3.org/1999/xlink" version="1.1" x="0px" y="0px" viewBox="0 0 100 125" style="enable-background:new 0 0 100 100;" xml:space="preserve"><g><path d="M60.7,55.7H39.3c-0.8,0-1.3,0.8-0.9,1.4l2.6,4.4c0.5,0.7,0.7,1.7,0.7,2.6v27.6c0,3.2,2.3,5.8,5.2,5.8h6.2   c2.9,0,5.2-2.6,5.2-5.8V64.1c0-0.9,0.2-1.8,0.7-2.6l2.6-4.4C62,56.5,61.5,55.7,60.7,55.7z M46.9,89c0,0.6-0.5,1-1,1   c-0.6,0-1-0.5-1-1V64.3c0-0.6,0.5-1,1-1c0.6,0,1,0.5,1,1V89z M51,89c0,0.6-0.5,1-1,1s-1-0.5-1-1V64.3c0-0.6,0.5-1,1-1s1,0.5,1,1V89   z M55.2,89c0,0.6-0.5,1-1,1c-0.6,0-1-0.5-1-1V64.3c0-0.6,0.5-1,1-1c0.6,0,1,0.5,1,1V89z"/><path d="M51.2,17.7h-2.4c-0.5,0-0.9,0.4-0.9,0.9v34.4c0,0.5,0.4,0.9,0.9,0.9h2.4c0.5,0,0.9-0.4,0.9-0.9V18.6   C52.1,18.1,51.7,17.7,51.2,17.7z"/><path d="M47.6,15.3c0.2,0.3,0.5,0.5,1,0.5h2.8c0.4,0,0.8-0.2,1-0.5l1.4-2.5c0.2-0.5,0.3-1,0.2-1.5l-1.5-6.9   c-0.2-1.1-1.3-1.9-2.5-1.9s-2.2,0.8-2.5,1.9L46,11.2c-0.1,0.5,0,1,0.2,1.5L47.6,15.3z"/></g><text x="0" y="115" fill="#000000" font-size="5px" font-weight="bold" font-family="'Helvetica Neue', Helvetica, Arial-Unicode, Arial, Sans-serif">Created by Nicolas LEULIET</text><text x="0" y="120" fill="#000000" font-size="5px" font-weight="bold" font-family="'Helvetica Neue', Helvetica, Arial-Unicode, Arial, Sans-serif">from the Noun Project</text></svg>