<?xml version="1.0" encoding="UTF-8" standalone="no"?>
<!DOCTYPE svg PUBLIC "-//W3C//DTD SVG 1.0//EN" "http://www.w3.org/TR/2001/REC-SVG-20010904/DTD/svg10.dtd">
<svg height="600" width="600" viewBox="0 0 600 600" xmlns="http://www.w3.org/2000/svg">
<title>A "wheeled" triskelion of three three-fold spirals (variant of triple-spiral symbol), enclosed within overall spirals</title>
<g transform="translate(7.5,687.75) scale(0.095,-0.095)" style="fill:#000000; stroke:none">
<circle cx="3120" cy="4010.087" r="3258" style="fill:#ffffff; stroke:none"/>
<path d="M2020,3375 C2009.06,3356.05,2009.85,3325.64,2020,3306.25 C2032.58,3282.22,2062.4,3262.34,2088.75,3255.92 C2123.09,3247.56,2167.28,3255.55,2198.62,3271.88 C2238.46,3292.63,2275.64,3334.45,2295,3375 C2318.78,3424.8,2326.42,3492.38,2317.7,3546.88 C2307.3,3611.84,2270.56,3683.61,2226.25,3732.24 C2174.65,3788.86,2093.9,3836.09,2020,3856.25 C1935.54,3879.29,1828.91,3876.29,1745,3851.31 C1650.52,3823.2,1550.09,3757.66,1484.15,3684.38 C1410.79,3602.85,1353.07,3482.72,1332.5,3375 C1309.84,3256.34,1323.45,3110.29,1365.07,2996.87 C1410.53,2872.98,1505,2743.66,1607.5,2660.53 C1718.69,2570.35,1878.35,2502.06,2020,2481.25 C2172.74,2458.81,2358.35,2483.04,2501.25,2541.45 C2654.55,2604.11,2812.83,2727.56,2913.09,2859.38 C3020.15,3000.14,3099.04,3199.4,3120,3375 C3140.96,3550.6,3219.85,3749.86,3326.91,3890.63 C3427.17,4022.44,3585.45,4145.89,3738.75,4208.55 C3881.65,4266.96,4067.26,4291.19,4220,4268.75 C4361.65,4247.94,4521.31,4179.65,4632.5,4089.47 C4735,4006.34,4829.47,3877.02,4874.93,3753.12 C4916.55,3639.71,4930.16,3493.66,4907.5,3375 C4886.93,3267.28,4829.21,3147.15,4755.85,3065.63 C4689.91,2992.34,4589.48,2926.8,4495,2898.69 C4411.09,2873.71,4304.46,2870.71,4220,2893.75 C4146.1,2913.91,4065.35,2961.14,4013.75,3017.76 C3969.43,3066.39,3932.7,3138.16,3922.3,3203.13 C3913.58,3257.62,3921.22,3325.2,3945,3375 C3964.36,3415.55,4001.54,3457.37,4041.38,3478.12 C4072.72,3494.45,4116.91,3502.44,4151.25,3494.08 C4177.6,3487.66,4207.42,3467.78,4220,3443.75 C4230.15,3424.36,4230.94,3393.95,4220,3375 C4241.88,3375,4267.82,3390.89,4279.54,3409.38 C4294.06,3432.28,4296.37,3468.05,4288.75,3494.08 C4278.82,3527.99,4249.81,3562.27,4220,3581.25 C4182.1,3605.38,4127.29,3616.66,4082.5,3613.16 C4027.48,3608.85,3965.13,3581.67,3922.3,3546.87 C3871.24,3505.39,3827.46,3437.69,3807.5,3375 C3784.26,3302,3783.74,3208.46,3803.23,3134.38 C3825.5,3049.71,3881.42,2958.87,3945,2898.69 C4016.59,2830.92,4123.57,2776.71,4220,2756.25 C4327.28,2733.48,4460.17,2743.56,4563.75,2779.61 C4677.85,2819.31,4797.52,2904.13,4874.93,2996.88 C4959.5,3098.2,5024.26,3244.67,5045,3375 C5067.5,3516.39,5046.81,3688.8,4994.01,3821.88 C4937.07,3965.37,4823.29,4114,4701.25,4208.55 C4570.34,4309.98,4384.28,4385.33,4220,4406.25 C4044.57,4428.59,3832.56,4397.28,3670,4327.63 C3507.44,4257.98,3295.43,4226.67,3120,4249.01 C2955.72,4269.92,2769.66,4345.28,2638.75,4446.71 C2516.71,4541.26,2402.93,4689.88,2345.99,4833.38 C2293.19,4966.46,2272.5,5138.87,2295,5280.26 C2315.74,5410.59,2380.5,5557.06,2465.07,5658.38 C2542.48,5751.13,2662.15,5835.94,2776.25,5875.65 C2879.83,5911.69,3012.72,5921.77,3120,5899.01 C3216.43,5878.54,3323.41,5824.34,3395,5756.57 C3458.58,5696.39,3514.5,5605.55,3536.77,5520.88 C3556.26,5446.8,3555.74,5353.25,3532.5,5280.26 C3512.54,5217.56,3468.76,5149.87,3417.7,5108.38 C3374.87,5073.58,3312.52,5046.41,3257.5,5042.1 C3212.71,5038.59,3157.9,5049.88,3120,5074.01 C3090.19,5092.98,3061.18,5127.26,3051.25,5161.18 C3043.63,5187.21,3045.94,5222.97,3060.46,5245.88 C3072.18,5264.37,3098.12,5280.26,3120,5280.26 C3109.06,5299.21,3082.33,5313.73,3060.46,5314.63 C3033.36,5315.75,3001.23,5299.87,2982.5,5280.26 C2958.09,5254.7,2942.91,5212.44,2941.38,5177.13 C2939.44,5132.24,2957.07,5079.14,2982.5,5042.1 C3013.74,4996.61,3068.45,4956.2,3120,4936.51 C3181.46,4913.03,3261.98,4908.96,3326.25,4923.02 C3401.08,4939.4,3482.36,4985.71,3536.77,5039.63 C3598.96,5101.26,3649.67,5195.1,3670,5280.26 C3692.89,5376.14,3686.35,5495.89,3655.85,5589.63 C3621.93,5693.92,3546.76,5803.97,3463.75,5875.65 C3372.32,5954.61,3239.03,6015.84,3120,6036.51 C2989.97,6059.08,2830.74,6041.93,2707.5,5994.73 C2573.8,5943.52,2434.84,5839.4,2345.99,5727.13 C2250.19,5606.07,2178.37,5433.22,2157.5,5280.26 C2135.12,5116.17,2162.89,4917.36,2226.91,4764.63 C2295.28,4601.53,2428.4,4433.58,2570,4327.63 C2711.6,4221.67,2844.72,4053.72,2913.09,3890.62 C2977.12,3737.89,3004.88,3539.09,2982.5,3375 C2961.63,3222.04,2889.81,3049.18,2794.01,2928.13 C2705.16,2815.86,2566.2,2711.74,2432.5,2660.53 C2309.26,2613.33,2150.03,2596.17,2020,2618.75 C1900.97,2639.42,1767.68,2700.65,1676.25,2779.61 C1593.25,2851.29,1518.07,2961.33,1484.15,3065.63 C1453.65,3159.37,1447.11,3279.11,1470,3375 C1490.33,3460.16,1541.04,3554,1603.23,3615.62 C1657.64,3669.55,1738.92,3715.86,1813.75,3732.24 C1878.02,3746.3,1958.54,3742.23,2020,3718.75 C2071.55,3699.06,2126.26,3658.65,2157.5,3613.16 C2182.93,3576.12,2200.56,3523.01,2198.62,3478.13 C2197.09,3442.82,2181.91,3400.56,2157.5,3375 C2138.77,3355.39,2106.64,3339.51,2079.54,3340.63 C2057.67,3341.53,2030.94,3356.05,2020,3375Z"/>
<path style="fill:#ffffff" d="M3337.74,4107.365 C3290.61,4062.09,3241.26,4005.45,3202.86,3952.58 C3163.7,3898.67,3124.44,3832.9,3095.38,3772.88 C3079.73,3836.33,3055.35,3907.39,3028.77,3967.08 C3001.66,4027.95,2964.33,4094.84,2926.88,4150.015 C2989.66,4131.84,3063.38,4117.42,3128.37,4110.6 C3194.64,4103.64,3271.23,4102.52,3337.74,4107.365Z"/>
<path d="M2020,3375 C2030.94,3393.95,2030.15,3424.36,2020,3443.75 C2007.42,3467.78,1977.6,3487.66,1951.25,3494.08 C1916.91,3502.44,1872.72,3494.45,1841.38,3478.12 C1801.54,3457.37,1764.36,3415.55,1745,3375 C1721.22,3325.2,1713.58,3257.62,1722.3,3203.13 C1732.7,3138.16,1769.44,3066.39,1813.75,3017.76 C1865.35,2961.14,1946.1,2913.91,2020,2893.75 C2104.46,2870.71,2211.09,2873.71,2295,2898.69 C2389.48,2926.8,2489.91,2992.34,2555.85,3065.63 C2629.21,3147.15,2686.93,3267.28,2707.5,3375 C2730.16,3493.66,2716.55,3639.71,2674.93,3753.13 C2629.47,3877.02,2535,4006.34,2432.5,4089.47 C2321.31,4179.65,2161.65,4247.94,2020,4268.75 C1867.26,4291.19,1681.65,4266.96,1538.75,4208.55 C1385.45,4145.89,1227.17,4022.44,1126.91,3890.63 C1019.85,3749.86,940.961,3550.6,920,3375 C897.705,3188.22,932.557,2963.01,1007.835,2790.63 C1192.67,2426.86,1524.07,2060.82,1866.35,1838.7 C2218.07,1610.46,2701.25,1455.64,3120,1434.41 C3549.99,1412.61,4059,1523.65,4442.03,1720.26 C4835.06,1922.02,5230,2282.33,5469.04,2653.87 C5714.17,3034.87,5879.57,3557.54,5900.82,4010.09 C5922.6,4473.88,5800.98,5022.38,5587.48,5434.69 C5368.81,5856.99,4979.59,6280.83,4578.79,6536.78 C4168.5,6798.8,3606.35,6974.78,3120,6996.05 C2965.19,7002.82,2957.97,7140.53,3120,7133.75 C3629.04,7112.46,4217.69,6929.38,4647.63,6656.02 C5068.07,6388.71,5476.68,5945.46,5706.7,5503.52 C5931.52,5071.56,6060.24,4496.56,6038.46,4010.09 C6017.19,3534.86,5844.69,2985.7,5588.22,2585.06 C5337.83,2193.89,4923.5,1814.2,4510.83,1601.1 C4108.16,1393.17,3572.66,1275.03,3120,1296.83 C2678.58,1318.08,2168.93,1480,1797.57,1719.57 C1435.68,1953.05,1084.9,2338.46,888.7395,2721.87 C802.212,2913.9,760.276,3165.55,782.5,3375 C803.535,3573.25,889.5,3798.93,1007.83,3959.38 C1119.48,4110.76,1297.1,4253.55,1470,4327.63 C1632.56,4397.28,1844.57,4428.59,2020,4406.25 C2184.28,4385.33,2370.34,4309.98,2501.25,4208.55 C2623.29,4114,2737.07,3965.37,2794.01,3821.88 C2846.81,3688.8,2867.5,3516.39,2845,3375 C2824.26,3244.67,2759.5,3098.2,2674.93,2996.88 C2597.52,2904.13,2477.85,2819.31,2363.75,2779.61 C2260.17,2743.56,2127.28,2733.48,2020,2756.25 C1923.57,2776.71,1816.59,2830.92,1745,2898.69 C1681.42,2958.87,1625.5,3049.71,1603.23,3134.38 C1583.74,3208.46,1584.26,3302,1607.5,3375 C1627.46,3437.69,1671.24,3505.39,1722.3,3546.87 C1765.13,3581.67,1827.48,3608.85,1882.5,3613.16 C1927.29,3616.66,1982.1,3605.38,2020,3581.25 C2049.81,3562.27,2078.82,3527.99,2088.75,3494.08 C2096.37,3468.05,2094.06,3432.28,2079.54,3409.38 C2067.82,3390.89,2041.88,3375,2020,3375Z"/>
<path d="M4220,3375 C4198.12,3375,4172.18,3359.11,4160.46,3340.63 C4145.94,3317.72,4143.63,3281.95,4151.25,3255.92 C4161.18,3222.01,4190.19,3187.73,4220,3168.75 C4257.9,3144.62,4312.71,3133.34,4357.5,3136.84 C4412.52,3141.15,4474.87,3168.33,4517.7,3203.13 C4568.76,3244.61,4612.54,3312.31,4632.5,3375 C4655.74,3448,4656.26,3541.54,4636.77,3615.62 C4614.5,3700.29,4558.58,3791.13,4495,3851.31 C4423.41,3919.08,4316.43,3973.29,4220,3993.75 C4112.72,4016.52,3979.83,4006.44,3876.25,3970.39 C3762.15,3930.69,3642.48,3845.87,3565.07,3753.12 C3480.5,3651.8,3415.74,3505.33,3395,3375 C3372.5,3233.61,3393.19,3061.2,3445.99,2928.13 C3502.93,2784.63,3616.71,2636,3738.75,2541.45 C3869.66,2440.02,4055.72,2364.67,4220,2343.75 C4395.43,2321.41,4607.44,2352.72,4770,2422.37 C4942.9,2496.45,5120.52,2639.24,5232.165,2790.63 C5454.78,3132.58,5606.07,3602.6,5627.3,4010.09 C5649.11,4428.8,5541.59,4924.66,5350.6,5297.92 C5154.49,5681.2,4803.81,6066.5,4442.03,6299.91 C4070.79,6539.41,3561.28,6701.28,3120,6722.52 C2667.48,6744.31,2132.14,6626.21,1729.59,6418.35 C1317.04,6205.31,902.84,5825.73,652.52,5434.69 C396.132,5034.16,223.685,4485.17,202.419,4010.09 C180.649,3523.76,309.328,2948.93,534.081,2517.1 C605.622,2379.64,489.973,2304.54,414.826,2448.25 C178.744,2899.74,42.9712,3501.07,64.7361,4010.09 C86.0195,4507.85,265.574,5083.34,533.301,5503.52 C794.977,5914.2,1228.58,6313.17,1660.77,6537.55 C2082.96,6756.74,2644.8,6881.93,3120,6860.15 C3583.96,6838.88,4119.95,6669.91,4510.83,6419.07 C4892.24,6174.32,5262.29,5769.63,5469.75,5366.71 C5672.05,4973.81,5786.66,4451.47,5764.86,4010.09 C5743.61,3579.94,5585.22,3083.45,5351.26,2721.87 C5228.22,2550.91,5031.25,2388.77,4838.75,2303.29 C4656.54,2222.39,4418.12,2183.99,4220,2206.25 C4033.07,2227.25,3820.61,2309.68,3670,2422.37 C3528.4,2528.33,3395.28,2696.28,3326.91,2859.38 C3262.88,3012.11,3235.12,3210.91,3257.5,3375 C3278.37,3527.96,3350.19,3700.82,3445.99,3821.88 C3534.84,3934.14,3673.8,4038.26,3807.5,4089.47 C3930.74,4136.67,4089.97,4153.83,4220,4131.25 C4339.03,4110.58,4472.32,4049.35,4563.75,3970.39 C4646.75,3898.71,4721.93,3788.67,4755.85,3684.38 C4786.35,3590.63,4792.89,3470.89,4770,3375 C4749.67,3289.84,4698.96,3196,4636.77,3134.38 C4582.36,3080.45,4501.08,3034.14,4426.25,3017.76 C4361.98,3003.7,4281.46,3007.77,4220,3031.25 C4168.45,3050.94,4113.74,3091.35,4082.5,3136.84 C4057.07,3173.88,4039.44,3226.99,4041.38,3271.88 C4042.91,3307.18,4058.09,3349.44,4082.5,3375 C4101.23,3394.61,4133.36,3410.49,4160.46,3409.38 C4182.33,3408.47,4209.06,3393.95,4220,3375Z"/>
<path d="M3120,5280.26 C3130.94,5261.3,3157.67,5246.78,3179.54,5245.88 C3206.64,5244.76,3238.77,5260.64,3257.5,5280.26 C3281.91,5305.81,3297.09,5348.08,3298.62,5383.38 C3300.56,5428.27,3282.93,5481.37,3257.5,5518.41 C3226.26,5563.9,3171.55,5604.31,3120,5624.01 C3058.54,5647.48,2978.02,5651.56,2913.75,5637.49 C2838.92,5621.12,2757.64,5574.8,2703.23,5520.88 C2641.04,5459.26,2590.33,5365.41,2570,5280.26 C2547.11,5184.37,2553.65,5064.63,2584.15,4970.88 C2618.07,4866.59,2693.24,4756.54,2776.25,4684.86 C2867.68,4605.91,3000.97,4544.67,3120,4524.01 C3250.03,4501.43,3409.26,4518.58,3532.5,4565.79 C3666.2,4616.99,3805.16,4721.12,3894.01,4833.38 C3989.81,4954.44,4061.63,5127.29,4082.5,5280.26 C4104.88,5444.34,4077.11,5643.15,4013.09,5795.88 C3944.72,5958.98,3811.6,6126.93,3670,6232.88 C3519.39,6345.58,3306.93,6428.01,3120,6449.005 C2712.55,6470.82,2229.85,6366.83,1866.35,6181.47 C1492.83,5991,1117.16,5649.95,889.398,5297.92 C655.523,4936.44,497.182,4440.1,475.942,4010.09 C454.147,3568.83,568.718,3046.65,770.959,2653.87 C978.352,2251.07,1348.3,1846.51,1729.59,1601.82 C2120.36,1351.07,2656.18,1182.14,3120,1160.88 C3595.06,1139.11,4156.72,1264.26,4578.79,1483.39 C5010.85,1707.7,5444.32,2106.55,5705.92,2517.1 C5789.19,2647.78,5912.05,2585.18,5825.17,2448.25 C5552.22,2018.06,5099.34,1599.81,4647.63,1364.15 C4205.91,1133.7,3617.75,1001.45,3120,1023.22 C2633.5,1044.5,2071.18,1220.53,1660.77,1482.62 C1259.85,1738.66,870.514,2162.63,651.776,2585.06 C438.215,2997.49,316.554,3546.15,338.342,4010.09 C359.602,4462.77,525.046,4985.6,770.251,5366.71 C1009.36,5738.36,1404.42,6098.78,1797.57,6300.6 C2180.71,6497.27,2689.88,6608.35,3120,6586.525 C3329.57,6565.44,3568.47,6475.94,3738.75,6351.96 C3899.92,6234.62,4052.39,6047.33,4132.17,5864.63 C4207.44,5692.25,4242.29,5467.03,4220,5280.26 C4199.04,5104.65,4120.15,4905.39,4013.09,4764.63 C3912.83,4632.82,3754.55,4509.37,3601.25,4446.71 C3458.35,4388.3,3272.74,4364.07,3120,4386.51 C2978.35,4407.32,2818.69,4475.6,2707.5,4565.79 C2605,4648.92,2510.53,4778.23,2465.07,4902.13 C2423.45,5015.54,2409.84,5161.59,2432.5,5280.26 C2453.07,5387.98,2510.79,5508.1,2584.15,5589.63 C2650.09,5662.91,2750.52,5728.45,2845,5756.57 C2928.91,5781.54,3035.54,5784.55,3120,5761.51 C3193.9,5741.34,3274.65,5694.11,3326.25,5637.49 C3370.57,5588.86,3407.3,5517.1,3417.7,5452.13 C3426.42,5397.64,3418.78,5330.05,3395,5280.26 C3375.64,5239.71,3338.46,5197.89,3298.62,5177.13 C3267.28,5160.8,3223.09,5152.82,3188.75,5161.18 C3162.4,5167.59,3132.58,5187.48,3120,5211.51 C3109.85,5230.89,3109.06,5261.3,3120,5280.26Z"/>
<path d="M2020,3375 C1998.12,3375,1972.18,3359.11,1960.46,3340.63 C1945.94,3317.72,1943.63,3281.95,1951.25,3255.92 C1961.18,3222.01,1990.19,3187.73,2020,3168.75 C2057.9,3144.62,2112.71,3133.34,2157.5,3136.84 C2212.52,3141.15,2274.87,3168.33,2317.7,3203.13 C2368.76,3244.61,2412.54,3312.31,2432.5,3375 C2455.74,3448,2456.26,3541.54,2436.77,3615.63 C2414.5,3700.29,2358.58,3791.13,2295,3851.31 C2223.41,3919.08,2116.43,3973.29,2020,3993.75 C1912.72,4016.52,1779.83,4006.44,1676.25,3970.39 C1562.15,3930.69,1442.48,3845.87,1365.07,3753.12 C1280.5,3651.8,1215.74,3505.33,1195,3375 C1172.5,3233.61,1193.19,3061.2,1245.995,2928.13 C1408.15,2603.6,1700.82,2276.32,2003.88,2076.9 C2316.33,1871.3,2746.57,1730.69,3120,1709.51 C3504.65,1687.68,3960.71,1784.56,4304.46,1958.55 C4369.16,1991.3,4441.29,2032.28,4502.56,2071.04 C4618.86,2084.46,4750.35,2118.6,4858.655,2163 C4717.07,2042.79,4538.65,1923.78,4373.23,1839.42 C4009.85,1654.13,3527.31,1550.17,3120,1571.98 C2723.92,1593.19,2267.21,1740.9,1935.13,1957.82 C1612.46,2168.59,1300.43,2515.24,1126.925,2859.385 C1062.88,3012.11,1035.12,3210.91,1057.5,3375 C1078.37,3527.96,1150.19,3700.82,1245.99,3821.88 C1334.84,3934.14,1473.8,4038.26,1607.5,4089.47 C1730.74,4136.67,1889.97,4153.83,2020,4131.25 C2139.03,4110.58,2272.32,4049.35,2363.75,3970.39 C2446.75,3898.71,2521.93,3788.67,2555.85,3684.38 C2586.35,3590.63,2592.89,3470.89,2570,3375 C2549.67,3289.84,2498.96,3196,2436.77,3134.38 C2382.36,3080.45,2301.08,3034.14,2226.25,3017.76 C2161.98,3003.7,2081.46,3007.77,2020,3031.25 C1968.45,3050.94,1913.74,3091.35,1882.5,3136.84 C1857.07,3173.88,1839.44,3226.99,1841.38,3271.88 C1842.91,3307.18,1858.09,3349.44,1882.5,3375 C1901.23,3394.61,1933.36,3410.49,1960.46,3409.38 C1982.33,3408.47,2009.06,3393.95,2020,3375Z"/>
<path d="M4220,3375 C4230.94,3356.05,4257.67,3341.53,4279.54,3340.63 C4306.64,3339.51,4338.77,3355.39,4357.5,3375 C4381.91,3400.56,4397.09,3442.82,4398.62,3478.12 C4400.56,3523.01,4382.93,3576.12,4357.5,3613.16 C4326.26,3658.65,4271.55,3699.06,4220,3718.75 C4158.54,3742.23,4078.02,3746.3,4013.75,3732.24 C3938.92,3715.86,3857.64,3669.55,3803.23,3615.62 C3741.04,3554,3690.33,3460.16,3670,3375 C3647.11,3279.11,3653.65,3159.37,3684.15,3065.63 C3718.07,2961.33,3793.25,2851.29,3876.25,2779.61 C3967.68,2700.65,4100.97,2639.42,4220,2618.75 C4350.03,2596.17,4509.26,2613.33,4632.5,2660.53 C4766.2,2711.74,4905.16,2815.86,4994.005,2928.13 C5193.98,3230.82,5331.07,3647.92,5352.25,4010.09 C5374.08,4383.47,5280.73,4826.39,5112.36,5160.38 C4938.93,5504.4,4627.01,5850.93,4304.46,6061.62 C4243.74,6101.29,4172.18,6143.26,4107.98,6176.935 C4038.21,6270.95,3942.9,6367.75,3850.3,6439.35 C4025.19,6376.84,4217.47,6281.83,4373.23,6180.75 C4715.4,5958.7,5046.69,5592.79,5231.46,5229.14 C5411.14,4875.52,5511.57,4406.14,5489.75,4010.09 C5468.55,3625.27,5324.36,3181.71,5113.075,2859.385 C5012.83,2727.56,4854.55,2604.11,4701.25,2541.45 C4558.35,2483.04,4372.74,2458.81,4220,2481.25 C4078.35,2502.06,3918.69,2570.35,3807.5,2660.53 C3705,2743.66,3610.53,2872.98,3565.07,2996.88 C3523.45,3110.29,3509.84,3256.34,3532.5,3375 C3553.07,3482.72,3610.79,3602.85,3684.15,3684.38 C3750.09,3757.66,3850.52,3823.2,3945,3851.31 C4028.91,3876.29,4135.54,3879.29,4220,3856.25 C4293.9,3836.09,4374.65,3788.86,4426.25,3732.24 C4470.57,3683.61,4507.3,3611.84,4517.7,3546.87 C4526.42,3492.38,4518.78,3424.8,4495,3375 C4475.64,3334.45,4438.46,3292.63,4398.62,3271.88 C4367.28,3255.55,4323.09,3247.56,4288.75,3255.92 C4262.4,3262.34,4232.58,3282.22,4220,3306.25 C4209.85,3325.64,4209.06,3356.05,4220,3375Z"/>
<path d="M3120,5280.26 C3130.94,5299.21,3130.15,5329.62,3120,5349.01 C3107.42,5373.03,3077.6,5392.92,3051.25,5399.33 C3016.91,5407.69,2972.72,5399.71,2941.38,5383.38 C2901.54,5362.62,2864.36,5320.8,2845,5280.26 C2821.22,5230.46,2813.58,5162.87,2822.3,5108.38 C2832.7,5043.42,2869.43,4971.65,2913.75,4923.02 C2965.35,4866.4,3046.1,4819.17,3120,4799.01 C3204.46,4775.96,3311.09,4778.97,3395,4803.94 C3489.48,4832.06,3589.91,4897.6,3655.85,4970.88 C3729.21,5052.41,3786.93,5172.53,3807.5,5280.26 C3830.16,5398.92,3816.55,5544.97,3774.93,5658.38 C3729.47,5782.28,3635,5911.6,3532.5,5994.73 C3421.31,6084.91,3261.65,6153.2,3120,6174.005 C2757.87,6195.84,2328.11,6106.01,2003.88,5943.27 C1669.6,5775.48,1332.7,5473.18,1127.64,5160.38 C916.417,4838.17,772.279,4394.77,751.086,4010.09 C747.097,3937.67,746.527,3854.71,749.462,3782.275 C702.933,3674.85,666.75,3543.9,651.048,3427.905 C617.739,3610.62,603.877,3824.65,613.535,4010.09 C634.753,4417.43,785.992,4887.3,1008.54,5229.14 C1224.95,5561.55,1581.23,5883.22,1935.13,6062.35 C2278.99,6236.4,2735.22,6333.3,3120,6311.495 C3284.28,6290.59,3470.34,6215.24,3601.25,6113.81 C3723.29,6019.25,3837.07,5870.63,3894.01,5727.13 C3946.81,5594.06,3967.5,5421.64,3945,5280.26 C3924.26,5149.92,3859.5,5003.45,3774.93,4902.13 C3697.52,4809.38,3577.85,4724.57,3463.75,4684.86 C3360.17,4648.82,3227.28,4638.74,3120,4661.51 C3023.57,4681.97,2916.59,4736.18,2845,4803.94 C2781.42,4864.13,2725.5,4954.96,2703.23,5039.63 C2683.74,5113.72,2684.26,5207.26,2707.5,5280.26 C2727.46,5342.95,2771.24,5410.64,2822.3,5452.13 C2865.13,5486.93,2927.48,5514.11,2982.5,5518.41 C3027.29,5521.92,3082.1,5510.63,3120,5486.51 C3149.81,5467.53,3178.82,5433.25,3188.75,5399.33 C3196.37,5373.31,3194.06,5337.54,3179.54,5314.63 C3167.82,5296.15,3141.88,5280.26,3120,5280.26Z"/>
</g>
<head xmlns=""/></svg>